<svg width="32" height="32" viewBox="0 0 32 32" fill="none" xmlns="http://www.w3.org/2000/svg">
<circle cx="16" cy="16" r="16" fill="black"/>
<path d="M8.22979 7.69531H12.1844V15.0701L18.0628 7.69531H22.8724L16.3527 15.6045L23.0862 24.2618H18.2766L12.1844 16.1389V24.2618H8.22979V7.69531Z" fill="white"/>
<path d="M8.22977 7.69549V24.2619H12.1844V16.1391L18.2766 24.2619H23.0862L16.3527 15.6046L22.8724 7.69549H18.0628L12.1844 15.0702V7.69549H8.22977ZM13.98 9.93679L17.1978 5.8999H26.6795L18.6528 15.6373L26.7575 26.0575H17.3788L13.98 21.5258V26.0575H6.43418V5.8999H13.98V9.93679Z" fill="white"/>
<path d="M8.22979 7.69531H12.1844V15.0701L18.0628 7.69531H22.8724L16.3527 15.6045L23.0862 24.2618H18.2766L12.1844 16.1389V24.2618H8.22979V7.69531Z" fill="black"/>
<path d="M8.22977 7.69548V24.2619H12.1844V16.1391L18.2766 24.2619H23.0862L16.3527 15.6046L22.8724 7.69548H18.0628L12.1844 15.0702V7.69548H8.22977ZM12.8257 13.2369L17.7539 7.0542H24.2321L17.1742 15.6163L24.3974 24.9032H17.9559L12.8257 18.0628V24.9032H7.58849V7.0542H12.8257V13.2369Z" fill="white"/>
</svg>
